<?xml version="1.0" encoding="UTF-8" standalone="no"?>
<svg
   xmlns:dc="http://purl.org/dc/elements/1.1/"
   xmlns:cc="http://creativecommons.org/ns#"
   xmlns:rdf="http://www.w3.org/1999/02/22-rdf-syntax-ns#"
   xmlns:svg="http://www.w3.org/2000/svg"
   xmlns="http://www.w3.org/2000/svg"
   xmlns:sodipodi="http://sodipodi.sourceforge.net/DTD/sodipodi-0.dtd"
   xmlns:inkscape="http://www.inkscape.org/namespaces/inkscape"
   width="56"
   height="56"
   version="1.1"
   id="svg8"
   sodipodi:docname="favicon_logo.svg"
   inkscape:version="1.0.2 (e86c870879, 2021-01-15)">
  <metadata
     id="metadata14">
    <rdf:RDF>
      <cc:Work
         rdf:about="">
        <dc:format>image/svg+xml</dc:format>
        <dc:type
           rdf:resource="http://purl.org/dc/dcmitype/StillImage" />
        <dc:title></dc:title>
      </cc:Work>
    </rdf:RDF>
  </metadata>
  <defs
     id="defs12" />
  <sodipodi:namedview
     pagecolor="#ffffff"
     bordercolor="#666666"
     borderopacity="1"
     objecttolerance="10"
     gridtolerance="10"
     guidetolerance="10"
     inkscape:pageopacity="0"
     inkscape:pageshadow="2"
     inkscape:window-width="1719"
     inkscape:window-height="943"
     id="namedview10"
     showgrid="false"
     inkscape:zoom="7.7185185"
     inkscape:cx="41.340971"
     inkscape:cy="28"
     inkscape:window-x="0"
     inkscape:window-y="0"
     inkscape:window-maximized="0"
     inkscape:current-layer="g6" />
  <g
     fill="none"
     fill-rule="evenodd"
     id="g6">
    <path
       d="M 28,0 C 43.464,0 56,12.536 56,28 56,43.464 43.464,56 28,56 12.536,56 0,43.464 0,28 0,12.536 12.536,0 28,0 Z m -4.8,13.827 c -1.535,0 -2.758,1.048 -2.979,2.553 l -2.345,16.28 c -0.011,0.076 -0.04,0.274 -0.32,0.287 -0.269,0.011 -0.322,-0.172 -0.34,-0.25 l -0.758,-3.34 a 0.631,0.631 0 0 0 -0.004,-0.015 c -0.492,-2.056 -2.337,-3.548 -4.388,-3.548 -0.745,0 -1.35,0.598 -1.35,1.337 0,0.738 0.605,1.337 1.35,1.337 0.798,0 1.553,0.637 1.759,1.484 l 0.757,3.339 0.004,0.015 c 0.34,1.426 1.612,2.377 3.09,2.312 1.479,-0.065 2.66,-1.123 2.873,-2.576 l 2.345,-16.281 c 0.013,-0.084 0.038,-0.26 0.303,-0.26 l 0.09,0.008 c 0.182,0.035 0.203,0.178 0.213,0.251 l 3.293,22.812 c 0.223,1.538 1.464,2.6 3.025,2.6 h 0.052 c 1.585,-0.023 2.817,-1.13 2.996,-2.69 l 0.46,-4.046 a 1.34,1.34 0 0 0 -1.192,-1.478 1.347,1.347 0 0 0 -1.492,1.18 l -0.46,4.044 c -0.01,0.085 -0.035,0.312 -0.353,0.317 -0.315,0.006 -0.35,-0.222 -0.362,-0.306 L 26.174,16.381 C 25.956,14.879 24.733,13.828 23.2,13.827 Z m 11.202,9.159 c -1.4,0.036 -2.486,1.023 -2.643,2.4 l -0.572,5.004 a 1.34,1.34 0 0 0 1.19,1.479 1.347,1.347 0 0 0 1.493,-1.178 l 0.572,-5.005 a 0.281,0.281 0 0 1 0.004,-0.024 0.152,0.152 0 0 1 0.053,-0.002 0.228,0.228 0 0 1 0.005,0.021 l 1.06,6.401 c 0.228,1.36 1.36,2.346 2.75,2.4 l 0.119,0.003 c 1.34,0 2.486,-0.883 2.812,-2.182 l 0.004,-0.016 0.477,-2.003 c 0.264,-1.036 1.211,-1.816 2.208,-1.816 0.745,0 1.35,-0.599 1.35,-1.337 0,-0.739 -0.605,-1.337 -1.35,-1.337 -2.239,0 -4.27,1.62 -4.83,3.852 l -0.004,0.016 -0.477,2.003 c -0.016,0.063 -0.045,0.151 -0.203,0.145 -0.165,-0.006 -0.182,-0.103 -0.192,-0.164 l -1.06,-6.4 c -0.23,-1.368 -1.367,-2.298 -2.766,-2.26 z"
       fill="#54e6af"
       id="path2" />
  </g>
</svg>
